<svg id="enEs237kfMp1" xmlns="http://www.w3.org/2000/svg" style="min-width:300px;"
    viewBox="300 25 950 1000" shape-rendering="geometricPrecision"
    text-rendering="geometricPrecision">
    <defs>
        <linearGradient id="enEs237kfMp10-fill" x1="788.26" y1="589.423" x2="866.572" y2="589.423"
            spreadMethod="pad" gradientUnits="userSpaceOnUse">
            <stop id="enEs237kfMp10-fill-0" offset="0%" stop-color="rgba(255,252,229,0)"></stop>
            <stop id="enEs237kfMp10-fill-1" offset="100%" stop-color="#fff"></stop>
        </linearGradient>
        <linearGradient id="enEs237kfMp11-fill" x1="924.777" y1="558.187" x2="895.138" y2="569.706"
            spreadMethod="pad" gradientUnits="userSpaceOnUse">
            <stop id="enEs237kfMp11-fill-0" offset="0%" stop-color="#fff"></stop>
            <stop id="enEs237kfMp11-fill-1" offset="75.93%" stop-color="rgba(255,255,255,0.0873)"></stop>
            <stop id="enEs237kfMp11-fill-2" offset="94.97%" stop-color="rgba(255,252,229,0)"></stop>
        </linearGradient>
    </defs>
    <path
        d="M788 665.33C735.21 681.5 737.33 714 737.33 714c-6 28 18.67 54.67 18.67 54.67 14.2 22.21 10.67 40 10.67 40-4.67 22-27.33 17.33-27.33 17.33-29.33 5.33-74.67-4.67-74.67-4.67-26.67-10.67 8-14 8-14 45.33 4 11.33-34 11.33-34C629.33 678.67 708.67 620 708.67 620c-57.33-92.67-54.08-134-54.08-134 19.25-31.33 55.42-46.67 55.42-46.67M673.33 384c-14 12.67-20.67 13.33-36.67 48.26s-12 21.07-25.69 23.74-10.98-23.33-20.31-23.73 4 15.73 4 15.73-6.67-11.33-15.33-15.33c-8.67-4 6.67 23.33 4 20s-2.67-8.67-12.67-6.67 6 15.33 6 15.33 25.17 61.33 77.92 24.67m153.75 52.33c5-4.67 17 1.67 17 1.67s36.67 22 38 68c0 0 4.67 50.67-75.33 57.33 0 0-16 22.67-16 46.67 0 0 0 18 13.33 38 0 0-18-.67-24 8 0 0 14.67 25.33 52 27.33 0 0 8.7 14.3 10-60 .23-13.22 8.59-19.36 24.8-47.76 25.2-44.13-2.42-49.77 21.97-49.12 37.67 1 72.89-36.45 39.84-88.45-17.59-27.67-34.12-33.8-39.95-41.33-28.22-36.44-22.67-37.33-35.33-85.33-2.97-11.24-14.67-27.26-13.33-43.33 3.33-40 52-160.69-82.67-160.67-94.69.02-101.55 84.85-88.24 135.89 5.7 21.86 15.08 38.03 22.9 38.78 0 0 23.33-3.33 23.83 16"
        fill="none" stroke="#fff" stroke-width="6" stroke-miterlimit="10"></path>
    <path fill="#fff"
        d="M657.77 366.06s33.57 9.27 17.57-28.73c-1.57-3.74-5.14 13.78-24.9 7.89l7.33 20.84Z"></path>
    <ellipse fill="#fff" rx="7.31" ry="14" transform="translate(669.02 300)"></ellipse>
    <path d="M826.67 526s-6 4.33-1.33 14" fill="none" stroke="#fff" stroke-width="6"
        stroke-miterlimit="10"></path>
    <g id="enEs237kfMp7" class="mascot-shorts-svg">
        <path
            d="M675.668 564.164s20.75 44.7 28.78 52.38c2.66 2.54 2.99-12.48-24.79 27.96-3.11 4.52 16.44-.67 20.44 8s19.88 6.67 21.28 8.67 19.39 7.33 20.72 14 7.94 7.93 7.94 7.93l38.06-21.27-10.9 21.26s13.57-6.07 16.24 0 16-4.74 17.33 0 2.65 9.32 12.89 12.07c13.21 3.56 10.61 7.52 12.22 4.67 33.56-59.49 52-59.49 80.89-86 30.13-27.65 24-75.06-50-129.2"
            fill="#29abe2"></path>
        <path fill="#0071bc" d="m857.428 471.174-188.31 78.84 6.55 14.15 191.1-79.52z"></path>
        <path d="M788.26 663.93c163.3-46.61 22.66-165.72 9.33-147.05" opacity=".6"
            fill="url(#enEs237kfMp10-fill)" transform="translate(.098 -3.496)"></path>
        <path
            d="M895.15 569.75c-6.92-17.82-5.9-34.84 2.28-38.02s20.43 8.68 27.36 26.5 5.9 34.84-2.28 38.02c-8.19 3.18-20.44-8.69-27.36-26.5Z"
            opacity=".6" fill="url(#enEs237kfMp11-fill)" transform="translate(.098 -3.496)"></path>
        <path
            d="M727.948 554.304c.96-2.83 3.19-5.26 6.06-6.41 5.09-2.02 10.67.38 12.7 5.47 2.48 6.24-1.1 13.55-6.53 24.63l-.01.03-1.53 3.13-3.26-1.21-.09-.03c-11.53-4.33-19.14-7.18-21.61-13.41-2.02-5.09.38-10.67 5.47-12.7 2.87-1.14 6.16-.9 8.8.5Zm123.9-46.5c.96-2.83 3.19-5.26 6.06-6.41 5.09-2.02 10.67.38 12.7 5.47 2.48 6.24-1.1 13.55-6.53 24.63l-.01.03-1.53 3.13-3.26-1.21-.09-.03c-11.53-4.33-19.14-7.18-21.61-13.41-2.02-5.09.38-10.67 5.47-12.7 2.87-1.14 6.16-.9 8.8.5Zm-52.58 42.82c.96-2.83 3.19-5.26 6.06-6.41 5.09-2.02 10.67.38 12.7 5.47 2.48 6.24-1.1 13.55-6.53 24.63l-.01.03-1.53 3.13-3.26-1.21-.09-.03c-11.53-4.33-19.14-7.18-21.61-13.41-2.02-5.09.38-10.67 5.47-12.7 2.87-1.14 6.16-.9 8.8.5Zm-60.25 74.69c2.98-.15 6.07 1.03 8.18 3.28 3.75 3.99 3.56 10.07-.43 13.82-4.89 4.6-13.01 3.95-25.31 2.97h-.03l-3.47-.27-.07-3.47v-.09c-.21-12.31-.35-20.44 4.54-25.03 3.99-3.75 10.07-3.56 13.82.43 2.11 2.24 3.1 5.39 2.77 8.36Zm41.81 10.39c2.98-.15 6.07 1.03 8.18 3.28 3.75 3.99 3.56 10.07-.43 13.82-4.89 4.6-13.01 3.95-25.31 2.97h-.03l-3.47-.27-.07-3.47v-.09c-.21-12.31-.35-20.44 4.54-25.03 3.99-3.75 10.07-3.56 13.82.43 2.11 2.24 3.1 5.39 2.77 8.36Zm43.16 21.87c2.98-.15 6.07 1.03 8.18 3.28 3.75 3.99 3.56 10.07-.43 13.82-4.89 4.6-13.01 3.95-25.31 2.97h-.03l-3.47-.27-.07-3.47v-.09c-.21-12.31-.35-20.44 4.54-25.03 3.99-3.75 10.07-3.56 13.82.43 2.12 2.25 3.1 5.39 2.77 8.36Zm49.51-12.85c-2.12-2.25-5.2-3.43-8.18-3.28.33-2.97-.65-6.12-2.77-8.37-3.75-3.99-9.83-4.18-13.82-.43-4.88 4.59-4.75 12.71-4.54 25.03v.09l.07 3.47 3.47.27h.03c5.06.4 9.41.75 13.12.69 4.97-6.06 9.67-10.93 14.27-15.13-.43-.82-.97-1.61-1.65-2.34Zm7.44-74.97c2.36-1.83 5.56-2.63 8.59-1.99 5.36 1.12 8.69 6.21 7.56 11.57-1.38 6.57-8.4 10.69-19.05 16.92l-.03.02-3 1.77-2.04-2.81-.06-.08c-7.22-9.98-11.98-16.56-10.61-23.11 1.12-5.36 6.22-8.69 11.57-7.56 3.03.63 5.64 2.65 7.07 5.27Zm-59.75 25.27c2.07-2.15 5.12-3.41 8.21-3.23 5.46.33 9.5 4.88 9.17 10.34-.4 6.7-6.75 11.8-16.37 19.53l-.02.02-2.71 2.19-2.43-2.48-.07-.07c-8.6-8.81-14.28-14.63-13.87-21.32.33-5.46 4.88-9.5 10.34-9.17 3.07.18 5.95 1.8 7.75 4.19Z"
            fill="#d4145a"></path>
    </g>
</svg>